<svg width="20" height="21" viewBox="0 0 20 21" fill="none" xmlns="http://www.w3.org/2000/svg">
<path d="M19 0.00231934H1C0.734784 0.00231934 0.48043 0.107676 0.292893 0.295213C0.105357 0.482749 0 0.737103 0 1.00232V19.0023C0 19.2675 0.105357 19.5219 0.292893 19.7094C0.48043 19.897 0.734784 20.0023 1 20.0023H7C7.26522 20.0023 7.51957 19.897 7.70711 19.7094C7.89464 19.5219 8 19.2675 8 19.0023V8.00232H19C19.2652 8.00232 19.5196 7.89696 19.7071 7.70943C19.8946 7.52189 20 7.26754 20 7.00232V1.00232C20 0.737103 19.8946 0.482749 19.7071 0.295213C19.5196 0.107676 19.2652 0.00231934 19 0.00231934ZM18 6.00232H16V5.00232C16 4.7371 15.8946 4.48275 15.7071 4.29521C15.5196 4.10768 15.2652 4.00232 15 4.00232C14.7348 4.00232 14.4804 4.10768 14.2929 4.29521C14.1054 4.48275 14 4.7371 14 5.00232V6.00232H12V5.00232C12 4.7371 11.8946 4.48275 11.7071 4.29521C11.5196 4.10768 11.2652 4.00232 11 4.00232C10.7348 4.00232 10.4804 4.10768 10.2929 4.29521C10.1054 4.48275 10 4.7371 10 5.00232V6.00232H8V5.00232C8 4.7371 7.89464 4.48275 7.70711 4.29521C7.51957 4.10768 7.26522 4.00232 7 4.00232C6.73478 4.00232 6.48043 4.10768 6.29289 4.29521C6.10536 4.48275 6 4.7371 6 5.00232V6.00232H5C4.73478 6.00232 4.48043 6.10768 4.29289 6.29521C4.10536 6.48275 4 6.7371 4 7.00232C4 7.26754 4.10536 7.52189 4.29289 7.70943C4.48043 7.89696 4.73478 8.00232 5 8.00232H6V10.0023H5C4.73478 10.0023 4.48043 10.1077 4.29289 10.2952C4.10536 10.4827 4 10.7371 4 11.0023C4 11.2675 4.10536 11.5219 4.29289 11.7094C4.48043 11.897 4.73478 12.0023 5 12.0023H6V14.0023H5C4.73478 14.0023 4.48043 14.1077 4.29289 14.2952C4.10536 14.4827 4 14.7371 4 15.0023C4 15.2675 4.10536 15.5219 4.29289 15.7094C4.48043 15.897 4.73478 16.0023 5 16.0023H6V18.0023H2V2.00232H18V6.00232Z" fill="white"/>
</svg>
